<svg xmlns="http://www.w3.org/2000/svg" viewBox="0 0 277.37 30.5"><defs><style>.cls-1{fill:#E35D54;}</style></defs><title>アセット 1logo_ss_red</title><g id="レイヤー_2" data-name="レイヤー 2"><g id="ss_red"><path class="cls-1" d="M47.25,16.57v-.08A13.73,13.73,0,0,1,61.3,2.63a13.6,13.6,0,0,1,14,13.78v.08A13.73,13.73,0,0,1,61.22,30.35a13.61,13.61,0,0,1-14-13.78m23.09,0v-.08c0-5.21-3.79-9.53-9.11-9.53s-9,4.25-9,9.46v.08C52.19,21.7,56,26,61.3,26s9-4.25,9-9.46"/><path class="cls-1" d="M87.35,2.9h4.36l11.79,27h-5l-2.72-6.47H83.14l-2.76,6.47H75.55Zm6.74,16.35L89.45,8.52,84.86,19.25Z"/><polygon class="cls-1" points="107.07 3.09 111.78 3.09 111.78 16.57 124.53 3.09 130.31 3.09 119.17 14.61 130.81 29.89 125.11 29.89 115.95 17.83 111.78 22.12 111.78 29.89 107.07 29.89 107.07 3.09"/><polygon class="cls-1" points="134.8 3.09 139.51 3.09 139.51 14.23 152.3 14.23 152.3 3.09 157.01 3.09 157.01 29.89 152.3 29.89 152.3 18.59 139.51 18.59 139.51 29.89 134.8 29.89 134.8 3.09"/><path class="cls-1" d="M160.89,16.57v-.08a14,14,0,0,1,28-.08v.08a14,14,0,0,1-28,.08m23.09,0v-.08c0-5.21-3.79-9.53-9.11-9.53s-9,4.25-9,9.46v.08c0,5.21,3.79,9.54,9.11,9.54s9-4.25,9-9.46"/><path class="cls-1" d="M192.45,18.52V3.09h4.71V18.33c0,5,2.56,7.66,6.78,7.66s6.74-2.53,6.74-7.47V3.09h4.71v15.2c0,8-4.52,12-11.52,12s-11.41-4-11.41-11.79"/><path class="cls-1" d="M219.18,26,222,22.61a12.34,12.34,0,0,0,8.46,3.49c2.91,0,4.75-1.34,4.75-3.37v-.08c0-1.91-1.07-2.95-6-4.1-5.71-1.38-8.92-3.07-8.92-8v-.08c0-4.6,3.83-7.77,9.15-7.77a14.85,14.85,0,0,1,9.73,3.37L236.6,9.63a12.18,12.18,0,0,0-7.28-2.76c-2.76,0-4.37,1.42-4.37,3.18v.08c0,2.07,1.23,3,6.36,4.21,5.67,1.38,8.61,3.41,8.61,7.85v.07c0,5-3.94,8-9.57,8A16.5,16.5,0,0,1,219.18,26"/><polygon class="cls-1" points="244.54 3.09 264.41 3.09 264.41 7.3 249.25 7.3 249.25 14.27 262.69 14.27 262.69 18.48 249.25 18.48 249.25 25.68 264.6 25.68 264.6 29.89 244.54 29.89 244.54 3.09"/><path class="cls-1" d="M19,.23a2.12,2.12,0,0,0-1.91,0L1,9.54A2.11,2.11,0,0,0,0,11.2V29.82c0,.61.43.86,1,.55l16.13-9.31a2.12,2.12,0,0,1,1.91,0l16.13,9.31c.53.3,1,.06,1-.55V11.2a2.12,2.12,0,0,0-1-1.65Z"/><path class="cls-1" d="M277.37,4a4,4,0,1,1-4-4,4,4,0,0,1,4,4m-.74,0a3.3,3.3,0,1,0-3.31,3.3A3.29,3.29,0,0,0,276.63,4m-2.41.68,1,1.51h-.89l-.9-1.38h-.76V6.22h-.79V1.81h1.68a1.49,1.49,0,0,1,1.61,1.54,1.36,1.36,0,0,1-1,1.35m-1.55-.53h.76a.87.87,0,1,0,0-1.72h-.77Z"/></g></g></svg>